# xmcd
#
# Track frame offsets:
# 150
# 4975
# 26480
# 40572
# 54425
# 77922
# 99922
# 109497
# 125502
# 145420
# 161520
# 174184
# 194325
# 209595
# 224317
# 232775
# 244217
# 261447
#
# Disc length: 3706 seconds
#
#
# Revision: 1
# Processed by: cddbd v1.5.1PL0 Copyright (c) Steve Scherf et al.
# Submitted via: FreeRIP 2.90 
#
DISCID=f80e7812
DTITLE=Pereira da Viola - Viola Cosmica
DYEAR=1998
DGENRE=Blues
TTITLE0=Viva O Povo Brasileiro
TTITLE1=Encontro de Bandeiras
TTITLE2=Prucutundah
TTITLE3=Chalana
TTITLE4=Lamento Do Rio
TTITLE5=Eu Tenho Saudade
TTITLE6=Carreirando
TTITLE7=Ponte Nova
TTITLE8=Princesinha
TTITLE9=Terra Molhada
TTITLE10=Boi Crauna
TTITLE11=Boi Encantado
TTITLE12=Cantiga Do Bem Querer
TTITLE13=Cravo Roxo
TTITLE14=A Passagem
TTITLE15=Corete
TTITLE16=Beira Mar
TTITLE17=Viola Cosmica
EXTD=
EXTT0=
EXTT1=
EXTT2=
EXTT3=
EXTT4=
EXTT5=
EXTT6=
EXTT7=
EXTT8=
EXTT9=
EXTT10=
EXTT11=
EXTT12=
EXTT13=
EXTT14=
EXTT15=
EXTT16=
EXTT17=
PLAYORDER=
